Coordinates
version=1
nRows=15
nColumns=34
inDegrees=yes

Units are S.I. units (second, meters, Newtons, ...)
If the header above contains a line with 'inDegrees', this indicates whether rotational values are in degrees (yes) or radians (no).

endheader
time	pelvis_tilt	pelvis_list	pelvis_rotation	pelvis_tx	pelvis_ty	pelvis_tz	hip_flexion_r	hip_adduction_r	hip_rotation_r	knee_angle_r	ankle_angle_r	subtalar_angle_r	mtp_angle_r	hip_flexion_l	hip_adduction_l	hip_rotation_l	knee_angle_l	ankle_angle_l	subtalar_angle_l	mtp_angle_l	lumbar_extension	lumbar_bending	lumbar_rotation	arm_flex_r	arm_add_r	arm_rot_r	elbow_flex_r	pro_sup_r	arm_flex_l	arm_add_l	arm_rot_l	elbow_flex_l	pro_sup_l
     14.85000000	     -3.70452877	    -10.49398845	   -175.88412836	      0.13437985	      1.03777597	      0.15832277	     28.81797775	     -8.35593798	     -4.91021418	     27.37700621	     -4.64104570	     -4.06748119	      0.00000000	     -7.96753035	      8.63495074	      2.49247993	    110.88855847	    -23.29798766	    -23.27801152	      0.00000000	    -21.78165710	     -8.30975794	    -12.86899894	    -26.80752297	    -16.65091266	     -7.23603150	    105.61758870	    100.71261784	     13.45003824	    -25.72347646	     30.42115143	     94.22102556	     80.96833295
     14.85833330	     -3.03293560	    -10.16568735	   -176.19704273	      0.13519421	      1.03054282	      0.15718066	     29.09491134	     -7.71149499	     -4.96668602	     31.14413268	     -2.45325449	     -6.14584666	      0.00000000	     -4.17882782	      8.06592791	      2.29092908	    115.27465255	    -22.57064778	    -23.13710477	      0.00000000	    -21.34287728	     -7.96258950	    -12.80014726	    -22.72127107	    -18.38802930	     -4.50160241	    103.94220676	    101.01181253	      8.13493204	    -27.31083086	     26.90729649	     93.14899559	     81.13113025
     14.86666670	     -2.66090518	     -9.26533391	   -176.99946266	      0.13673674	      1.02433271	      0.15540531	     28.43571656	     -6.35049665	     -5.46916554	     33.74808111	     -0.40105705	     -7.66836827	      0.00000000	     -0.48922140	      6.92904508	      1.78043454	    119.13197675	    -21.66927138	    -22.71487001	      0.00000000	    -21.38580947	     -6.79991625	    -10.04182205	    -20.38990008	    -19.87768633	     -3.68992154	    104.70179664	    101.06556301	      5.65004571	    -27.75616440	     26.07247617	     90.07572369	     81.35483224
     14.87500000	     -1.64484668	     -8.24513890	   -177.86015135	      0.13851419	      1.01838784	      0.15352531	     28.25444640	     -4.68799679	     -5.31210246	     36.22537919	      1.67984739	     -9.65172442	      0.00000000	      4.17169772	      5.66641341	      1.33996092	    122.52500968	    -20.43785356	    -22.04784811	      0.00000000	    -20.56412059	     -5.87647891	     -9.14047006	    -15.09241109	    -21.65290398	     -0.32657097	    102.66127853	    101.26667998	      0.64782545	    -28.19196785	     22.38466903	     87.90521992	     83.50828561
     14.88333330	     -1.36325336	     -7.12052177	   -179.03276795	      0.14044689	      1.01459689	      0.15130526	     27.01135401	     -2.64186161	     -4.28334065	     38.44090506	      4.11146490	    -11.70340012	      0.00000000	      8.15790852	      4.18649002	      0.98210761	    125.26997665	    -18.36534973	    -20.82420566	      0.00000000	    -20.97529923	     -4.52572784	     -5.91262420	    -12.16497001	    -23.03606435	      0.60030234	    102.96501729	    101.30489444	     -1.47952655	    -28.01594189	     21.03078507	     84.27028907	     83.95464399
     14.89166670	     -0.56312326	     -5.87902673	   -180.01363024	      0.14296911	      1.01064293	      0.14918455	     26.25269031	     -0.58048102	     -3.10944725	     40.47904217	      6.33899942	    -13.71423566	      0.00000000	     12.78330534	      2.38343850	      1.03919679	    127.54045569	    -16.19502219	    -20.15173221	      0.00000000	    -20.51824029	     -3.33634447	     -4.93163714	     -6.05006790	    -24.52979033	      4.74682034	    100.72595055	    101.28319379	     -6.22044055	    -27.98650694	     17.03428055	     82.42154243	     86.59740711
     14.90000000	     -0.32020381	     -4.84045557	   -180.95478127	      0.14594911	      1.00831856	      0.14749046	     24.86092592	      1.16121147	     -1.72543850	     42.54222875	      8.47662327	    -15.15055015	      0.00000000	     16.80511298	      0.85051623	      1.03275274	    129.02421224	    -13.08235990	    -17.70225233	      0.00000000	    -21.20196667	     -2.07002197	     -1.86638200	     -2.90309720	    -25.61967005	      5.36736848	    101.62463298	    101.20676596	     -7.90256327	    -27.68382856	     15.96966223	     79.80560032	     86.85727228
     14.90833330	      0.18487749	     -3.85434311	   -181.63555301	      0.14879478	      1.00635154	      0.14672272	     23.47059619	      2.61803781	     -0.58679294	     44.17783703	     10.72425184	    -16.02431231	      0.00000000	     21.27273337	     -0.57016006	      1.08486104	    129.86801583	     -9.96862898	    -14.71129256	      0.00000000	    -21.23523925	     -0.86940248	      0.67112638	      0.55600234	    -26.60764880	      6.38740490	    102.00079118	    101.08759980	     -9.96579469	    -27.63903706	     15.06569139	     78.15480458	     87.08498164
     14.91666670	      0.65472797	     -3.05658727	   -182.20230731	      0.15238924	      1.00576018	      0.14604403	     21.71182943	      3.72243410	      0.47369426	     45.14662707	     12.53945892	    -16.44123751	      0.00000000	     25.83872714	     -1.81912911	      1.11127860	    130.03931430	     -7.18541057	    -11.91584468	      0.00000000	    -21.16894305	      0.01517661	      0.04539145	      7.75645867	    -27.06687047	     11.96183457	    100.15157306	     99.92264530	    -15.92299432	    -26.68060648	      8.95847973	     78.99852124	     87.78690873
     14.92500000	      1.11524043	     -2.55902024	   -182.71269113	      0.15635864	      1.00690127	      0.14555201	     19.60431590	      4.25875834	      1.28790525	     45.49441319	     14.63289878	    -15.79348317	      0.00000000	     30.58609400	     -2.67110836	      1.07036281	    129.51660745	     -4.51064153	     -9.63532092	      0.00000000	    -21.28048075	      0.65449035	      2.53560186	     10.24714396	    -27.84240451	     12.25124232	    102.14811571	     99.73604932	    -17.70977902	    -26.91118476	      8.45419807	     79.06021322	     87.84844907
     14.93333330	      1.55926276	     -2.19903116	   -183.12280004	      0.16050693	      1.00891547	      0.14547180	     17.16619122	      4.40011891	      1.79918262	     45.19842659	     16.43550627	    -14.80715625	      0.00000000	     35.33431508	     -3.32638903	      1.00452538	    128.27089058	     -2.34786789	     -8.35410979	      0.00000000	    -21.25468162	      1.08708896	      3.15293336	     14.71733458	    -27.92023375	     14.81867739	    102.89550323	     98.50886100	    -21.88452054	    -26.04464328	      4.31614785	     81.07108190	     87.89086414
     14.94166670	      2.11639611	     -1.87784145	   -183.35410609	      0.16368892	      1.01243944	      0.14577221	     14.46217095	      4.27203086	      1.92564022	     44.15439189	     17.49080128	    -13.54183123	      0.00000000	     39.99908989	     -3.74008387	      0.87906661	    126.14225019	     -0.81584549	     -8.47140099	      0.00000000	    -20.84675751	      1.62440788	      5.15047487	     16.89520111	    -28.49973027	     15.06205138	    105.17391929	     98.37737784	    -23.88095359	    -26.29125268	      3.84981529	     82.17770718	     87.89984347
     14.95000000	      2.50633031	     -1.81345033	   -183.51265090	      0.16601336	      1.01602218	      0.14659509	     11.37400486	      3.68120078	      1.73589348	     42.71488946	     17.95870869	    -11.82293149	      0.00000000	     44.01797890	     -3.71670973	      0.34113703	    123.25484766	     -0.19844775	    -10.29278692	      0.00000000	    -20.56305215	      1.70036288	      6.29210112	     19.27577226	    -28.36432259	     15.30368600	    107.19875858	     97.97988132	    -27.06593391	    -25.76207973	      1.08943212	     84.61498344	     87.81784533
     14.95833330	      3.05741078	     -1.86141392	   -183.50081736	      0.16632311	      1.02031886	      0.14796543	      8.16857225	      2.88182187	      1.24527219	     40.73487458	     16.84980721	    -10.49932998	      0.00000000	     47.65800210	     -3.35215448	     -0.35646462	    119.63350475	     -0.81860939	    -13.37729404	      0.00000000	    -19.61598744	      1.82819644	      7.46561089	     20.98645391	    -28.53388423	     15.86364277	    109.14063214	     97.79935553	    -29.79741536	    -25.43613031	     -0.59726851	     86.62205619	     87.87622826
     14.96666670	      3.66627045	     -1.81847379	   -183.21742356	      0.16477931	      1.02527136	      0.14962673	      4.69714219	      2.15527487	      0.34732452	     38.08315839	     14.35396637	     -9.30895439	      0.00000000	     50.72995747	     -2.74270820	     -0.90840948	    115.30687437	     -1.58754819	    -16.82404728	      0.00000000	    -18.31826898	      2.29447366	      8.47564325	     21.97576857	    -28.52624489	     15.83431524	    111.32788020	     97.74121262	    -32.29014349	    -25.36002117	     -1.41855401	     88.18298682	     87.90532058
